<svg width="24" height="25" viewBox="0 0 24 25" fill="none" xmlns="http://www.w3.org/2000/svg">
<g clip-path="url(#clip0_218_278)">
<path d="M12 9.31005C10.2435 9.31005 8.81004 10.7435 8.81004 12.5C8.81004 14.2566 10.2435 15.69 12 15.69C13.7566 15.69 15.19 14.2566 15.19 12.5C15.19 10.7435 13.7566 9.31005 12 9.31005ZM21.5676 12.5C21.5676 11.1791 21.5796 9.87003 21.5054 8.55144C21.4312 7.01986 21.0818 5.66059 19.9619 4.54062C18.8395 3.41826 17.4826 3.07126 15.951 2.99708C14.63 2.92289 13.321 2.93485 12.0024 2.93485C10.6814 2.93485 9.37242 2.92289 8.05382 2.99708C6.52224 3.07126 5.16297 3.42065 4.043 4.54062C2.92064 5.66298 2.57364 7.01986 2.49946 8.55144C2.42527 9.87243 2.43724 11.1814 2.43724 12.5C2.43724 13.8186 2.42527 15.1301 2.49946 16.4486C2.57364 17.9802 2.92303 19.3395 4.043 20.4595C5.16536 21.5818 6.52224 21.9288 8.05382 22.003C9.37481 22.0772 10.6838 22.0652 12.0024 22.0652C13.3234 22.0652 14.6324 22.0772 15.951 22.003C17.4826 21.9288 18.8419 21.5794 19.9619 20.4595C21.0842 19.3371 21.4312 17.9802 21.5054 16.4486C21.582 15.1301 21.5676 13.821 21.5676 12.5ZM12 17.4083C9.28387 17.4083 7.0918 15.2162 7.0918 12.5C7.0918 9.78388 9.28387 7.59181 12 7.59181C14.7162 7.59181 16.9083 9.78388 16.9083 12.5C16.9083 15.2162 14.7162 17.4083 12 17.4083ZM17.1093 8.53708C16.4751 8.53708 15.963 8.02496 15.963 7.39079C15.963 6.75662 16.4751 6.2445 17.1093 6.2445C17.7435 6.2445 18.2556 6.75662 18.2556 7.39079C18.2558 7.54138 18.2262 7.69052 18.1687 7.82968C18.1112 7.96884 18.0267 8.09528 17.9203 8.20176C17.8138 8.30824 17.6873 8.39267 17.5482 8.45021C17.409 8.50775 17.2599 8.53727 17.1093 8.53708Z" fill="white"/>
</g>
<defs>
<clipPath id="clip0_218_278">
<rect width="19.2" height="19.2" fill="white" transform="translate(2.3999 2.90002)"/>
</clipPath>
</defs>
</svg>
