<svg width="24" height="25" viewBox="0 0 24 25" fill="none" xmlns="http://www.w3.org/2000/svg">
<g clip-path="url(#clip0_218_273)">
<path d="M21.3013 7.02138C20.6042 7.33024 19.8554 7.53894 19.0682 7.63327C19.8805 7.14725 20.4881 6.38232 20.7778 5.4812C20.0147 5.93448 19.1795 6.25354 18.3086 6.42451C17.7229 5.79914 16.9471 5.38464 16.1017 5.24535C15.2563 5.10607 14.3885 5.24979 13.6331 5.65421C12.8778 6.05863 12.2771 6.70112 11.9243 7.48193C11.5715 8.26274 11.4863 9.13818 11.6821 9.97233C10.1358 9.89469 8.6231 9.49279 7.2422 8.7927C5.8613 8.09262 4.64303 7.11 3.66647 5.90861C3.33256 6.48461 3.14056 7.15244 3.14056 7.86367C3.14019 8.50395 3.29786 9.13441 3.59959 9.69913C3.90132 10.2639 4.33777 10.7454 4.87023 11.101C4.25272 11.0813 3.64883 10.9145 3.10884 10.6143V10.6644C3.10877 11.5624 3.4194 12.4328 3.98802 13.1278C4.55663 13.8229 5.3482 14.2998 6.22842 14.4777C5.65558 14.6327 5.055 14.6555 4.47204 14.5444C4.72038 15.3171 5.20414 15.9928 5.85558 16.4769C6.50702 16.961 7.29353 17.2292 8.10501 17.2441C6.72748 18.3255 5.02624 18.9121 3.27496 18.9095C2.96474 18.9096 2.65478 18.8915 2.34668 18.8553C4.12433 19.9982 6.19364 20.6048 8.30703 20.6025C15.4611 20.6025 19.3721 14.6772 19.3721 9.53824C19.3721 9.37129 19.3679 9.20266 19.3604 9.03571C20.1211 8.48556 20.7778 7.80431 21.2996 7.02388L21.3013 7.02138Z" fill="white"/>
</g>
<defs>
<clipPath id="clip0_218_273">
<rect width="19.2" height="19.2" fill="white" transform="translate(2.3999 2.90002)"/>
</clipPath>
</defs>
</svg>
